<svg width="22" height="22" viewBox="0 0 22 22" fill="none" xmlns="http://www.w3.org/2000/svg">
<g clip-path="url(#clip0_420_115)">
<path fill-rule="evenodd" clip-rule="evenodd" d="M2.59184 0.702705C2.83243 0.462477 3.12132 0.276122 3.43938 0.155991C3.75744 0.0358597 4.0974 -0.0153054 4.43673 0.00588637C4.77606 0.0270782 5.10701 0.120143 5.40765 0.278913C5.70829 0.437684 5.97175 0.658535 6.18059 0.92683L8.64871 4.09758C9.10109 4.6792 9.26059 5.43683 9.08184 6.15183L8.32971 9.16308C8.29082 9.31905 8.29292 9.48242 8.33581 9.63733C8.37869 9.79224 8.46091 9.93344 8.57446 10.0472L11.9528 13.4256C12.0667 13.5394 12.2082 13.6217 12.3633 13.6646C12.5185 13.7075 12.6822 13.7095 12.8383 13.6703L15.8482 12.9182C16.2011 12.83 16.5693 12.8231 16.9252 12.8982C17.2811 12.9732 17.6153 13.1282 17.9025 13.3513L21.0732 15.8181C22.2131 16.705 22.3176 18.3893 21.2973 19.4082L19.8756 20.83C18.8581 21.8475 17.3373 22.2943 15.9197 21.7952C12.2913 20.5186 8.99696 18.4414 6.28096 15.7177C3.55748 13.0021 1.4803 9.70821 0.203461 6.08033C-0.294289 4.66408 0.152586 3.14195 1.17009 2.12445L2.59184 0.702705Z" fill="#1A1C21"/>
</g>
<defs>
<clipPath id="clip0_420_115">
<rect width="22" height="22" fill="white"/>
</clipPath>
</defs>
</svg>
