<svg width="39" height="39" viewBox="0 0 39 39" fill="none" xmlns="http://www.w3.org/2000/svg">
<g clip-path="url(#clip0_474_98)">
<path d="M19.5 0.780029C9.1611 0.780029 0.779999 9.16113 0.779999 19.5C0.779999 29.8389 9.1611 38.22 19.5 38.22C29.8389 38.22 38.22 29.8389 38.22 19.5C38.22 9.16113 29.8389 0.780029 19.5 0.780029ZM27.1147 16.1148C27.1225 16.2747 27.1245 16.4346 27.1245 16.5906C27.1245 21.4656 23.4176 27.0836 16.6355 27.0836C14.6314 27.0869 12.6691 26.5113 10.9843 25.4261C11.271 25.4612 11.5654 25.4748 11.8638 25.4748C13.5915 25.4748 15.1807 24.8879 16.4424 23.8973C15.6735 23.8822 14.9286 23.6276 14.3113 23.169C13.694 22.7104 13.2351 22.0706 12.9987 21.3389C13.5509 21.4439 14.1197 21.4219 14.662 21.2745C13.8275 21.1058 13.0771 20.6536 12.5379 19.9947C11.9988 19.3357 11.7041 18.5106 11.7039 17.6592V17.6144C12.2011 17.8893 12.7705 18.057 13.375 18.0765C12.5927 17.5557 12.0389 16.7557 11.8268 15.8401C11.6148 14.9245 11.7605 13.9625 12.2343 13.1508C13.1605 14.2896 14.3155 15.2212 15.6245 15.8853C16.9336 16.5494 18.3675 16.9312 19.8334 17.006C19.6471 16.2149 19.7273 15.3844 20.0616 14.6436C20.3959 13.9028 20.9657 13.2932 21.6822 12.9095C22.3987 12.5259 23.2219 12.3898 24.0238 12.5223C24.8257 12.6548 25.5613 13.0485 26.1164 13.6422C26.9415 13.479 27.7329 13.1763 28.4564 12.7472C28.1813 13.6015 27.6055 14.327 26.8359 14.7888C27.5669 14.7008 28.2806 14.5043 28.9536 14.2058C28.4592 14.9466 27.8365 15.5931 27.1147 16.1148Z" fill="white"/>
</g>
<defs>
<clipPath id="clip0_474_98">
<rect width="39" height="39" fill="white"/>
</clipPath>
</defs>
</svg>
