<svg width="17" height="29" viewBox="0 0 17 29" fill="none" xmlns="http://www.w3.org/2000/svg">
<path d="M0.9168 1.37414C0.530141 1.76091 0.312927 2.28542 0.312927 2.83232C0.312927 3.37922 0.530141 3.90373 0.9168 4.29051L11.1262 14.4999L0.9168 24.7092C0.541099 25.0982 0.333209 25.6192 0.337909 26.16C0.342608 26.7008 0.559519 27.2181 0.941923 27.6005C1.32433 27.9829 1.84163 28.1998 2.38241 28.2045C2.92319 28.2092 3.44418 28.0013 3.83317 27.6256L15.5007 15.9581C15.8874 15.5713 16.1046 15.0468 16.1046 14.4999C16.1046 13.953 15.8874 13.4285 15.5007 13.0417L3.83317 1.37414C3.4464 0.987477 2.92189 0.770264 2.37499 0.770264C1.82809 0.770264 1.30358 0.987477 0.9168 1.37414Z" fill="black"/>
</svg>
