<svg width="39" height="39" viewBox="0 0 39 39" fill="none" xmlns="http://www.w3.org/2000/svg">
<g clip-path="url(#clip0_474_101)">
<path d="M31.4645 16.0278C31.6021 16.0231 31.7393 16.0461 31.8679 16.0955C31.9965 16.1449 32.1138 16.2197 32.2128 16.3154C32.3119 16.4111 32.3907 16.5257 32.4445 16.6525C32.4983 16.7793 32.526 16.9156 32.526 17.0534C32.526 17.1911 32.4983 17.3274 32.4445 17.4542C32.3907 17.581 32.3119 17.6957 32.2128 17.7914C32.1138 17.8871 31.9965 17.9619 31.8679 18.0113C31.7393 18.0607 31.6021 18.0837 31.4645 18.079H28.6138V19.9071H31.4645C31.6029 19.9003 31.7414 19.9218 31.8713 19.9701C32.0013 20.0184 32.12 20.0927 32.2204 20.1883C32.3208 20.2839 32.4008 20.3989 32.4554 20.5263C32.51 20.6538 32.5382 20.791 32.5382 20.9296C32.5382 21.0683 32.51 21.2055 32.4554 21.3329C32.4008 21.4603 32.3208 21.5753 32.2204 21.671C32.12 21.7666 32.0013 21.8408 31.8713 21.8891C31.7414 21.9375 31.6029 21.9589 31.4645 21.9521H27.5925C27.3218 21.9512 27.0626 21.8431 26.8714 21.6514C26.6802 21.4598 26.5727 21.2003 26.5724 20.9296V13.1784C26.5724 12.6141 27.0294 12.151 27.5925 12.151H31.4718C31.735 12.1646 31.9828 12.2789 32.164 12.4702C32.3452 12.6616 32.4458 12.9153 32.445 13.1788C32.4442 13.4423 32.3421 13.6955 32.1598 13.8857C31.9775 14.076 31.7289 14.1889 31.4657 14.2009H28.615V16.029L31.4645 16.0278ZM25.2074 20.9284C25.2052 21.1998 25.0958 21.4594 24.9032 21.6507C24.7106 21.8419 24.4502 21.9494 24.1788 21.9497C24.0181 21.9513 23.8592 21.9154 23.7147 21.845C23.5702 21.7745 23.4441 21.6715 23.3464 21.5439L19.3793 16.1485V20.9272C19.3793 21.1984 19.2716 21.4585 19.0799 21.6502C18.8881 21.842 18.628 21.9497 18.3568 21.9497C18.0856 21.9497 17.8255 21.842 17.6338 21.6502C17.442 21.4585 17.3343 21.1984 17.3343 20.9272V13.1759C17.3343 12.7384 17.6207 12.346 18.0326 12.2058C18.1344 12.1699 18.2416 12.1521 18.3495 12.1534C18.6664 12.1534 18.9589 12.3252 19.1551 12.5666L23.1538 17.9741V13.1759C23.1538 12.6116 23.6108 12.1485 24.1763 12.1485C24.7418 12.1485 25.205 12.6116 25.205 13.1759L25.2074 20.9284ZM15.8767 20.9284C15.8754 21.2002 15.7664 21.4605 15.5736 21.6522C15.3808 21.8438 15.1199 21.9513 14.848 21.9509C14.5782 21.9487 14.3202 21.84 14.1301 21.6485C13.94 21.457 13.8331 21.1982 13.8328 20.9284V13.1771C13.8328 12.6129 14.2898 12.1497 14.8553 12.1497C15.4196 12.1497 15.8779 12.6129 15.8779 13.1771L15.8767 20.9284ZM11.8706 21.9509H7.99134C7.71978 21.9503 7.45944 21.8426 7.26684 21.6511C7.07425 21.4597 6.96496 21.1999 6.96272 20.9284V13.1771C6.96272 12.6129 7.42584 12.1497 7.99134 12.1497C8.55684 12.1497 9.01388 12.6129 9.01388 13.1771V19.9059H11.8706C12.1418 19.9059 12.4019 20.0136 12.5937 20.2054C12.7854 20.3971 12.8932 20.6572 12.8932 20.9284C12.8932 21.1996 12.7854 21.4597 12.5937 21.6514C12.4019 21.8432 12.1418 21.9509 11.8706 21.9509ZM39 16.7566C39 8.02914 30.2457 0.92627 19.5 0.92627C8.75428 0.92627 0 8.02914 0 16.7566C0 24.5773 6.93834 31.1281 16.3069 32.3725C16.9418 32.5053 17.8047 32.7917 18.0278 33.3316C18.224 33.8191 18.1545 34.5747 18.0911 35.0903L17.8242 36.7466C17.7474 37.2353 17.4306 38.671 19.5256 37.7947C21.6267 36.9184 30.7673 31.1683 34.8611 26.4566C37.6606 23.3915 39 20.2422 39 16.7566Z" fill="white"/>
</g>
<defs>
<clipPath id="clip0_474_101">
<rect width="39" height="39" fill="white"/>
</clipPath>
</defs>
</svg>
